<?xml version="1.0" encoding="iso-8859-1"?>
<svg version="1.1" xmlns="http://www.w3.org/2000/svg" xmlns:xlink="http://www.w3.org/1999/xlink" x="0px" y="0px"
	 viewBox="0 0 26.676 26.676" style="enable-background:new 0 0 26.676 26.676;" xml:space="preserve">
<g>
	<path stroke="#405e81" fill="#405e81" d="m 23.307554,21.831055 c -0.229,0 -0.439,-0.131 -0.529,-0.346 v 0 C 22.439787,16.659613 20.405026,16.770958 12.998,16.705 v 4.613 c 0,0.213 -0.115,0.406 -0.304,0.508 -0.188,0.098 -0.413,0.084 -0.588,-0.033 L 0.254,13.815 C 0.094,13.708 0,13.528 0,13.339 0,13.148 0.094,12.974 0.254,12.862 L 12.111,4.883 c 0.175,-0.121 0.398,-0.129 0.588,-0.029 0.19,0.102 0.303,0.295 0.303,0.502 v 4.293 c 2.578,0.336 10.876554,2.270055 10.876554,11.614055 0,0.271 -0.191,0.508 -0.459,0.562 -0.037,0.006 -0.076,0.006 -0.112,0.006 z" />
</g>
</svg>
