<svg id="e5up2VTQsLb1" xmlns="http://www.w3.org/2000/svg" xmlns:xlink="http://www.w3.org/1999/xlink" viewBox="0 0 400 300" shape-rendering="geometricPrecision" text-rendering="geometricPrecision"><style><![CDATA[#e5up2VTQsLb35_to {animation: e5up2VTQsLb35_to__to 3000ms linear 1 normal forwards}@keyframes e5up2VTQsLb35_to__to { 0% {transform: translate(345px,209.681847px)} 40% {transform: translate(345px,209.681847px);animation-timing-function: cubic-bezier(0.390000,0.575000,0.565000,1)} 83.333333% {transform: translate(277px,185.500000px)} 100% {transform: translate(277px,185.500000px)}} #e5up2VTQsLb35 {animation: e5up2VTQsLb35_c_o 3000ms linear 1 normal forwards}@keyframes e5up2VTQsLb35_c_o { 0% {opacity: 0} 20% {opacity: 0} 23.333333% {opacity: 1} 100% {opacity: 1}} #e5up2VTQsLb36_to {animation: e5up2VTQsLb36_to__to 3000ms linear 1 normal forwards}@keyframes e5up2VTQsLb36_to__to { 0% {transform: translate(352.646622px,219.394097px)} 40% {transform: translate(352.646622px,219.394097px);animation-timing-function: cubic-bezier(0.390000,0.575000,0.565000,1)} 83.333333% {transform: translate(284.646622px,195.212250px)} 100% {transform: translate(284.646622px,195.212250px)}} #e5up2VTQsLb36 {animation: e5up2VTQsLb36_c_o 3000ms linear 1 normal forwards}@keyframes e5up2VTQsLb36_c_o { 0% {opacity: 0} 10% {opacity: 0} 13.333333% {opacity: 1} 96.666667% {opacity: 1} 100% {opacity: 0}}]]></style><defs><linearGradient id="e5up2VTQsLb3-fill" x1="30" y1="0.910000" x2="30" y2="199.940000" spreadMethod="pad" gradientUnits="userSpaceOnUse"><stop id="e5up2VTQsLb3-fill-0" offset="0%" stop-color="rgb(163,212,136)"/><stop id="e5up2VTQsLb3-fill-1" offset="100%" stop-color="rgb(64,160,115)"/></linearGradient><linearGradient id="e5up2VTQsLb26-fill" x1="1.190000" y1="1.190000" x2="152.070000" y2="152.070000" spreadMethod="pad" gradientUnits="userSpaceOnUse"><stop id="e5up2VTQsLb26-fill-0" offset="0%" stop-color="rgb(73,165,247)"/><stop id="e5up2VTQsLb26-fill-1" offset="100%" stop-color="rgb(17,138,245)"/></linearGradient><linearGradient id="e5up2VTQsLb31-fill" x1="276.740000" y1="276.620000" x2="276.740000" y2="264.780000" spreadMethod="pad" gradientUnits="userSpaceOnUse"><stop id="e5up2VTQsLb31-fill-0" offset="0%" stop-color="rgb(0,129,69)"/><stop id="e5up2VTQsLb31-fill-1" offset="19%" stop-color="rgb(0,146,76)"/><stop id="e5up2VTQsLb31-fill-2" offset="43%" stop-color="rgb(63,165,84)"/><stop id="e5up2VTQsLb31-fill-3" offset="65%" stop-color="rgb(102,181,90)"/><stop id="e5up2VTQsLb31-fill-4" offset="85%" stop-color="rgb(124,192,95)"/><stop id="e5up2VTQsLb31-fill-5" offset="100%" stop-color="rgb(132,198,97)"/></linearGradient></defs><rect id="e5up2VTQsLb2" width="360" height="200" rx="0" ry="0" transform="matrix(1 0 0 1 20 96)" fill="rgb(255,255,255)" stroke="none" stroke-width="0"/><rect id="e5up2VTQsLb3" width="60" height="200" rx="0" ry="0" transform="matrix(1 0 0 1 20 96)" fill="url(#e5up2VTQsLb3-fill)" stroke="none" stroke-width="1"/><line id="e5up2VTQsLb4" x1="27" y1="105" x2="71" y2="105" fill="rgb(0,0,0)" stroke="rgb(0,0,0)" stroke-width="1.500000" stroke-miterlimit="10"/><line id="e5up2VTQsLb5" x1="27" y1="118" x2="52" y2="118" fill="rgb(0,0,0)" stroke="rgb(0,0,0)" stroke-width="1.500000" stroke-miterlimit="10"/><line id="e5up2VTQsLb6" x1="27" y1="131" x2="65" y2="131" fill="rgb(0,0,0)" stroke="rgb(0,0,0)" stroke-width="1.500000" stroke-miterlimit="10"/><line id="e5up2VTQsLb7" x1="27" y1="170" x2="74" y2="170" fill="rgb(0,0,0)" stroke="rgb(0,0,0)" stroke-width="1.500000" stroke-miterlimit="10"/><rect id="e5up2VTQsLb8" width="60" height="13" rx="0" ry="0" transform="matrix(1 0 0 1 20 177)" fill="rgb(0,129,69)" stroke="none" stroke-width="1"/><line id="e5up2VTQsLb9" x1="27" y1="183" x2="57" y2="183" fill="rgb(0,0,0)" stroke="rgb(255,255,255)" stroke-width="3" stroke-miterlimit="10"/><line id="e5up2VTQsLb10" x1="27" y1="196" x2="71" y2="196" fill="rgb(0,0,0)" stroke="rgb(0,0,0)" stroke-width="1.500000" stroke-miterlimit="10"/><line id="e5up2VTQsLb11" x1="27" y1="209" x2="64" y2="209" fill="rgb(0,0,0)" stroke="rgb(0,0,0)" stroke-width="1.500000" stroke-miterlimit="10"/><rect id="e5up2VTQsLb12" width="60" height="200" rx="0" ry="0" transform="matrix(1 0 0 1 320 96)" fill="rgb(242,242,242)" stroke="none" stroke-width="1"/><line id="e5up2VTQsLb13" x1="326" y1="105" x2="370" y2="105" fill="rgb(0,0,0)" stroke="rgb(0,0,0)" stroke-width="1.500000" stroke-miterlimit="10"/><line id="e5up2VTQsLb14" x1="326" y1="118" x2="351" y2="118" fill="rgb(0,0,0)" stroke="rgb(0,0,0)" stroke-width="1.500000" stroke-miterlimit="10"/><line id="e5up2VTQsLb15" x1="326" y1="131" x2="364" y2="131" fill="rgb(0,0,0)" stroke="rgb(0,0,0)" stroke-width="1.500000" stroke-miterlimit="10"/><line id="e5up2VTQsLb16" x1="326" y1="157" x2="373" y2="157" fill="rgb(0,0,0)" stroke="rgb(0,0,0)" stroke-width="1.500000" stroke-miterlimit="10"/><line id="e5up2VTQsLb17" x1="326" y1="170" x2="366" y2="170" fill="rgb(0,0,0)" stroke="rgb(0,0,0)" stroke-width="1.500000" stroke-miterlimit="10"/><line id="e5up2VTQsLb18" x1="326" y1="183" x2="356" y2="183" fill="rgb(0,0,0)" stroke="rgb(0,0,0)" stroke-width="1.500000" stroke-miterlimit="10"/><line id="e5up2VTQsLb19" x1="326" y1="196" x2="370" y2="196" fill="rgb(0,0,0)" stroke="rgb(0,0,0)" stroke-width="1.500000" stroke-miterlimit="10"/><line id="e5up2VTQsLb20" x1="326" y1="209" x2="373" y2="209" fill="rgb(0,0,0)" stroke="rgb(0,0,0)" stroke-width="1.500000" stroke-miterlimit="10"/><line id="e5up2VTQsLb21" x1="326" y1="222" x2="366" y2="222" fill="rgb(0,0,0)" stroke="rgb(0,0,0)" stroke-width="1.500000" stroke-miterlimit="10"/><line id="e5up2VTQsLb22" x1="326" y1="248" x2="373" y2="248" fill="rgb(0,0,0)" stroke="rgb(0,0,0)" stroke-width="1.500000" stroke-miterlimit="10"/><line id="e5up2VTQsLb23" x1="326" y1="261" x2="370" y2="261" fill="rgb(0,0,0)" stroke="rgb(0,0,0)" stroke-width="1.500000" stroke-miterlimit="10"/><line id="e5up2VTQsLb24" x1="326" y1="274" x2="373" y2="274" fill="rgb(0,0,0)" stroke="rgb(0,0,0)" stroke-width="1.500000" stroke-miterlimit="10"/><line id="e5up2VTQsLb25" x1="326" y1="287" x2="366" y2="287" fill="rgb(0,0,0)" stroke="rgb(0,0,0)" stroke-width="1.500000" stroke-miterlimit="10"/><rect id="e5up2VTQsLb26" width="154" height="154" rx="0" ry="0" transform="matrix(1 0 0 1 98 132)" fill="url(#e5up2VTQsLb26-fill)" stroke="none" stroke-width="1"/><rect id="e5up2VTQsLb27" width="50" height="154" rx="0" ry="0" transform="matrix(1 0 0 1 252 132)" fill="rgb(255,255,255)" stroke="rgb(128,128,128)" stroke-width="1" stroke-miterlimit="10"/><rect id="e5up2VTQsLb28" width="38" height="15" rx="2" ry="2" transform="matrix(1 0 0 1 258 136)" fill="rgb(0,41,87)" stroke="none" stroke-width="1"/><rect id="e5up2VTQsLb29" width="38" height="15" rx="2" ry="2" transform="matrix(1 0 0 1 258 157)" fill="rgb(0,41,87)" stroke="none" stroke-width="1"/><path id="e5up2VTQsLb30" d="M274.820000,263C274.728249,263.004970,274.654970,263.078249,274.650000,263.170000L274.650000,264.670000C274.650719,264.740138,274.599423,264.799983,274.530000,264.810000C274.282653,264.856765,274.038760,264.920244,273.800000,265C273.730363,265.020073,273.655480,264.996426,273.610000,264.940000L272.730000,263.690000C272.668367,263.641597,272.581633,263.641597,272.520000,263.690000L270.840000,264.690000C270.771295,264.735684,270.742447,264.822230,270.770000,264.900000L271.400000,266.290000C271.448256,266.340297,271.448256,266.419703,271.400000,266.470000C271.210000,266.650000,271.030000,266.820000,270.860000,267.010000C270.812148,267.062809,270.737647,267.082414,270.670000,267.060000L269.280000,266.430000C269.207359,266.405338,269.127070,266.429425,269.080000,266.490000L268.080000,268.180000C268.045774,268.249951,268.066882,268.334385,268.130000,268.380000L269.380000,269.260000C269.432370,269.308154,269.455217,269.380503,269.440000,269.450000C269.362675,269.689475,269.299236,269.933214,269.250000,270.180000C269.236331,270.247347,269.178645,270.296792,269.110000,270.300000L267.590000,270.450000C267.513196,270.459558,267.454245,270.522720,267.450000,270.600000L267.450000,272.600000C267.456821,272.678140,267.513457,272.742867,267.590000,272.760000L269.110000,272.900000C269.178645,272.903208,269.236331,272.952653,269.250000,273.020000C269.296765,273.267347,269.360244,273.511240,269.440000,273.750000C269.455217,273.819497,269.432370,273.891846,269.380000,273.940000L268.130000,274.820000C268.071325,274.872815,268.051421,274.956410,268.080000,275.030000L269.080000,276.710000C269.122192,276.777109,269.205167,276.806150,269.280000,276.780000L270.670000,276.150000C270.723640,276.100446,270.806360,276.100446,270.860000,276.150000C271.029864,276.339859,271.210141,276.520136,271.400000,276.690000C271.438695,276.747423,271.438695,276.822577,271.400000,276.880000L270.770000,278.260000C270.742447,278.337770,270.771295,278.424316,270.840000,278.470000L272.520000,279.470000C272.592959,279.505617,272.680920,279.484674,272.730000,279.420000L273.610000,278.170000C273.658154,278.117630,273.730503,278.094783,273.800000,278.110000C274.039475,278.187325,274.283214,278.250764,274.530000,278.300000C274.595572,278.316609,274.643615,278.372659,274.650000,278.440000L274.790000,279.960000C274.800137,280.040477,274.868890,280.100636,274.950000,280.100000L276.950000,280.100000C277.025701,280.092170,277.086974,280.034981,277.100000,279.960000L277.240000,278.440000C277.240000,278.360000,277.310000,278.320000,277.370000,278.300000C277.617078,278.252040,277.860893,278.188582,278.100000,278.110000C278.166526,278.094187,278.236267,278.117434,278.280000,278.170000L279.170000,279.420000C279.217803,279.479799,279.299680,279.500269,279.370000,279.470000L281.060000,278.470000C281.122254,278.419637,281.146250,278.335650,281.120000,278.260000L280.490000,276.880000C280.461242,276.812686,280.481833,276.734439,280.540000,276.690000C280.726624,276.520051,280.903569,276.339768,281.070000,276.150000C281.120000,276.150000,281.200000,276.070000,281.260000,276.150000L282.650000,276.780000C282.727770,276.807553,282.814316,276.778705,282.860000,276.710000L283.860000,275.030000C283.912364,274.969793,283.912364,274.880207,283.860000,274.820000L282.610000,273.940000C282.553574,273.894520,282.529927,273.819637,282.550000,273.750000C282.627325,273.510525,282.690764,273.266786,282.740000,273.020000C282.753669,272.952653,282.811355,272.903208,282.880000,272.900000L284.380000,272.900000C284.475486,272.894687,284.550148,272.815633,284.550000,272.720000L284.550000,271.620000C284.550000,266.920057,280.739943,263.110000,276.040000,263.110000Z" fill="rgb(0,41,87)" stroke="none" stroke-width="1"/><path id="e5up2VTQsLb31" d="M276.530000,264.780000C276.452680,264.780000,276.390000,264.842680,276.390000,264.920000L276.390000,266.250000C276.384687,266.345486,276.305633,266.420148,276.210000,266.420000L275.770000,266.420000C274.300186,266.463697,272.921416,267.142139,271.990000,268.280000C271.775064,268.530758,271.590455,268.805993,271.440000,269.100000C271.280421,269.391106,271.146579,269.695597,271.040000,270.010000C270.892294,270.503343,270.814865,271.015043,270.810000,271.530000L270.810000,271.530000C270.810000,272.882604,271.347320,274.179809,272.303755,275.136245C273.260191,276.092680,274.557396,276.630000,275.910000,276.630000L275.910000,276.630000C277.566854,276.630000,278.910000,275.286854,278.910000,273.630000C278.904526,272.455908,277.954092,271.505474,276.780000,271.500000C276.384827,271.500000,276.005840,271.656982,275.726411,271.936411C275.446982,272.215840,275.290000,272.594827,275.290000,272.990000C275.290000,273.542285,275.737715,273.990000,276.290000,273.990000C276.604122,273.987555,276.874370,273.767199,276.940000,273.460000C276.954781,273.396137,277.014796,273.353269,277.080000,273.360000C277.286549,273.413021,277.451355,273.568469,277.516347,273.771569C277.581339,273.974669,277.537396,274.196917,277.400000,274.360000C277.114961,274.669223,276.710423,274.840514,276.290000,274.830000C275.796697,274.830000,275.323599,274.634036,274.974781,274.285219C274.625964,273.936401,274.430000,273.463303,274.430000,272.970000C274.435506,271.676038,275.486026,270.629988,276.780000,270.630000C277.516103,270.626162,278.227925,270.893096,278.780000,271.380000C278.853951,271.446551,278.950540,271.482325,279.050000,271.480000L282.550000,271.480000C282.634438,271.474712,282.700165,271.404603,282.700000,271.320000C282.610280,267.886280,279.952685,265.069316,276.530000,264.780000Z" fill="url(#e5up2VTQsLb31-fill)" stroke="none" stroke-width="1"/><path id="e5up2VTQsLb32" d="M280.150000,270.680000C279.636375,270.680000,279.220000,270.263625,279.220000,269.750000C279.220000,269.236375,279.636375,268.820000,280.150000,268.820000C280.663625,268.820000,281.080000,269.236375,281.080000,269.750000C281.080000,269.996651,280.982018,270.233200,280.807609,270.407609C280.633200,270.582018,280.396651,270.680000,280.150000,270.680000Z" fill="rgb(0,41,87)" stroke="none" stroke-width="1"/><path id="e5up2VTQsLb33" d="M378.500000,97.500000L378.500000,294.500000L21.500000,294.500000L21.500000,97.500000L378.500000,97.500000M380,96L20,96L20,296L380,296L380,96Z" fill="rgb(102,102,102)" stroke="none" stroke-width="1"/><path id="e5up2VTQsLb34" d="M359.480000,80.640000C359.628817,80.974127,359.570300,81.364240,359.330000,81.640000L349.200000,92.760000C349.029303,92.943403,348.790542,93.048313,348.540000,93.050000C348.277660,93.048895,348.026261,92.944744,347.840000,92.760000L337.570000,81.650000C337.328233,81.374346,337.273228,80.981450,337.430000,80.650000C337.562811,80.305282,337.900934,80.083892,338.270000,80.100000L344.750000,80.100000L344.750000,44C344.742243,43.750653,344.836079,43.508845,345.010000,43.330000C345.185127,43.156632,345.423683,43.062655,345.670000,43.070000L351.230000,43.070000C351.478956,43.064500,351.719921,43.158009,351.900000,43.330000C352.073921,43.508845,352.167757,43.750653,352.160000,44L352.160000,80.090000L358.640000,80.090000C359.010816,80.067410,359.352430,80.291086,359.480000,80.640000Z" fill="rgb(191,32,53)" stroke="none" stroke-width="1"/><g id="e5up2VTQsLb35_to" transform="translate(345,209.681847)"><rect id="e5up2VTQsLb35" width="38" height="15" rx="2" ry="2" transform="translate(-19,-7.500000)" opacity="0" fill="rgb(0,41,87)" stroke="none" stroke-width="1"/></g><g id="e5up2VTQsLb36_to" transform="translate(352.646622,219.394097)"><path id="e5up2VTQsLb36" d="M289.620000,196.530000C289.793633,196.682634,289.842880,196.932971,289.740000,197.140000C289.661296,197.363165,289.446462,197.509090,289.210000,197.500000L285.800000,197.500000L287.600000,201.750000C287.660032,201.890524,287.660032,202.049476,287.600000,202.190000C287.540319,202.329314,287.429314,202.440319,287.290000,202.500000L285.710000,203.170000C285.572847,203.229529,285.417153,203.229529,285.280000,203.170000C285.138743,203.114840,285.024149,203.007408,284.960000,202.870000L283.260000,198.870000L280.470000,201.660000C280.366363,201.770191,280.221259,201.831861,280.070000,201.830000C279.757979,201.814541,279.510031,201.562243,279.500000,201.250000L279.500000,187.790000C279.510031,187.477757,279.757979,187.225459,280.070000,187.210000C280.221505,187.206877,280.367101,187.268755,280.470000,187.380000Z" transform="translate(-284.646622,-195.212250)" opacity="0" fill="rgb(0,0,0)" stroke="rgb(247,147,30)" stroke-width="1" stroke-miterlimit="10"/></g></svg>