<svg xmlns="http://www.w3.org/2000/svg" xmlns:xlink="http://www.w3.org/1999/xlink" viewBox="0 40 400 260"><defs><style>.a,.h,.m{fill:#fff;}.b{fill:url(#a);}.c,.m{stroke:#000;}.c,.e,.h,.m{stroke-miterlimit:10;}.c{stroke-width:1.5px;}.d{fill:#008145;}.e{stroke:#fff;stroke-width:3px;}.f{fill:#f2f2f2;}.g{fill:url(#b);}.h{stroke:gray;}.i{fill:#002957;}.j{fill:url(#c);}.k{fill:#666;}.l{fill:#bf2035;}</style><linearGradient id="a" x1="50" y1="96.91" x2="50" y2="295.94" gradientUnits="userSpaceOnUse"><stop offset="0" stop-color="#a3d488"/><stop offset="1" stop-color="#40a073"/></linearGradient><linearGradient id="b" x1="99.19" y1="133.19" x2="250.07" y2="284.07" gradientUnits="userSpaceOnUse"><stop offset="0" stop-color="#49a5f7"/><stop offset="1" stop-color="#118af5"/></linearGradient><linearGradient id="c" x1="276.74" y1="345.38" x2="276.74" y2="357.22" gradientTransform="matrix(1, 0, 0, -1, 0, 622)" gradientUnits="userSpaceOnUse"><stop offset="0" stop-color="#008145"/><stop offset="0.19" stop-color="#00924c"/><stop offset="0.43" stop-color="#3fa554"/><stop offset="0.65" stop-color="#66b55a"/><stop offset="0.85" stop-color="#7cc05f"/><stop offset="1" stop-color="#84c661"/></linearGradient></defs><rect class="a" x="21" y="96" width="359" height="199"/><rect class="b" x="20" y="96" width="60" height="200"/><line class="c" x1="27" y1="105" x2="71" y2="105"/><line class="c" x1="27" y1="118" x2="52" y2="118"/><line class="c" x1="27" y1="131" x2="65" y2="131"/><line class="c" x1="27" y1="170" x2="74" y2="170"/><rect class="d" x="20" y="177" width="60" height="13"/><line class="e" x1="27" y1="183" x2="57" y2="183"/><line class="c" x1="27" y1="196" x2="71" y2="196"/><line class="c" x1="27" y1="209" x2="64" y2="209"/><rect class="f" x="320" y="96" width="60" height="200"/><line class="c" x1="326" y1="105" x2="370" y2="105"/><line class="c" x1="326" y1="118" x2="351" y2="118"/><line class="c" x1="326" y1="131" x2="364" y2="131"/><line class="c" x1="326" y1="157" x2="373" y2="157"/><line class="c" x1="326" y1="170" x2="366" y2="170"/><line class="c" x1="326" y1="183" x2="356" y2="183"/><line class="c" x1="326" y1="196" x2="370" y2="196"/><line class="c" x1="326" y1="209" x2="373" y2="209"/><line class="c" x1="326" y1="222" x2="366" y2="222"/><line class="c" x1="326" y1="248" x2="373" y2="248"/><line class="c" x1="326" y1="261" x2="370" y2="261"/><line class="c" x1="326" y1="274" x2="373" y2="274"/><line class="c" x1="326" y1="287" x2="366" y2="287"/><rect class="g" x="98" y="132" width="154" height="154"/><rect class="h" x="252" y="132" width="50" height="154"/><rect class="i" x="258" y="136" width="38" height="15" rx="2"/><rect class="i" x="258" y="157" width="38" height="15" rx="2"/><rect class="i" x="258" y="178" width="38" height="15" rx="2"/><path class="i" d="M274.82,263a.18.18,0,0,0-.17.17v1.5a.14.14,0,0,1-.12.14,5.57,5.57,0,0,0-.73.19.18.18,0,0,1-.19-.06l-.88-1.25a.17.17,0,0,0-.21,0l-1.68,1a.18.18,0,0,0-.07.21l.63,1.39a.13.13,0,0,1,0,.18c-.19.18-.37.35-.54.54a.18.18,0,0,1-.19.05l-1.39-.63a.18.18,0,0,0-.2.06l-1,1.69a.16.16,0,0,0,.05.2l1.25.88a.2.2,0,0,1,.06.19,6.54,6.54,0,0,0-.19.73.15.15,0,0,1-.14.12l-1.52.15a.16.16,0,0,0-.14.15v2a.18.18,0,0,0,.14.16l1.52.14a.15.15,0,0,1,.14.12,5.57,5.57,0,0,0,.19.73.2.2,0,0,1-.06.19l-1.25.88a.19.19,0,0,0-.05.21l1,1.68a.17.17,0,0,0,.2.07l1.39-.63a.14.14,0,0,1,.19,0,6.88,6.88,0,0,0,.54.54.17.17,0,0,1,0,.19l-.63,1.38a.18.18,0,0,0,.07.21l1.68,1a.17.17,0,0,0,.21-.05l.88-1.25a.2.2,0,0,1,.19-.06,6.54,6.54,0,0,0,.73.19.16.16,0,0,1,.12.14l.14,1.52a.16.16,0,0,0,.16.14h2a.17.17,0,0,0,.15-.14l.14-1.52c0-.08.07-.12.13-.14a6,6,0,0,0,.73-.19.18.18,0,0,1,.18.06l.89,1.25a.17.17,0,0,0,.2.05l1.69-1a.19.19,0,0,0,.06-.21l-.63-1.38a.16.16,0,0,1,.05-.19,6.75,6.75,0,0,0,.53-.54c.05,0,.13-.08.19,0l1.39.63a.18.18,0,0,0,.21-.07l1-1.68a.16.16,0,0,0,0-.21l-1.25-.88a.18.18,0,0,1-.06-.19,6.54,6.54,0,0,0,.19-.73.15.15,0,0,1,.14-.12h1.5a.18.18,0,0,0,.17-.18v-1.1a8.51,8.51,0,0,0-8.51-8.51Z"/><path class="j" d="M276.53,264.78a.14.14,0,0,0-.14.14v1.33a.18.18,0,0,1-.18.17h-.44a5.08,5.08,0,0,0-3.78,1.86,4.2,4.2,0,0,0-.55.82,5.7,5.7,0,0,0-.4.91,5.48,5.48,0,0,0-.23,1.52h0a5.1,5.1,0,0,0,5.1,5.1h0a3,3,0,0,0,3-3,2.14,2.14,0,0,0-2.13-2.13,1.49,1.49,0,0,0-1.49,1.49,1,1,0,0,0,1,1,.67.67,0,0,0,.65-.53.13.13,0,0,1,.14-.1.62.62,0,0,1,.32,1,1.46,1.46,0,0,1-1.11.47,1.86,1.86,0,0,1-1.86-1.86,2.35,2.35,0,0,1,2.35-2.34,3,3,0,0,1,2,.75.39.39,0,0,0,.27.1h3.5a.16.16,0,0,0,.15-.16A6.74,6.74,0,0,0,276.53,264.78Z"/><path class="i" d="M280.15,270.68a.93.93,0,1,1,.93-.93A.93.93,0,0,1,280.15,270.68Z"/><path class="k" d="M378.5,97.5v197H21.5V97.5h357M380,96H20V296H380V96Z"/><path class="l" d="M315.34,154.75a.93.93,0,0,1-.82.61l-15,.7a.9.9,0,0,1-.67-.27,1,1,0,0,1-.29-.7l.6-15.12a.92.92,0,0,1,.61-.81.87.87,0,0,1,1,.2l4.59,4.58,25.53-25.53a.88.88,0,0,1,1.31,0l3.93,3.93a.91.91,0,0,1,0,1.31l-25.54,25.53,4.59,4.58A.86.86,0,0,1,315.34,154.75Z"/><rect class="m" x="83.5" y="111.5" width="172" height="121"/><rect class="f" x="169" y="135.5" width="80" height="63.5"/><rect class="f" x="84.5" y="214" width="170" height="17"/><rect class="i" x="190" y="150" width="38" height="15" rx="2"/><rect class="i" x="224" y="217" width="28" height="12" rx="1.54"/><line class="c" x1="91" y1="137" x2="138" y2="137"/><line class="c" x1="91" y1="150" x2="135" y2="150"/><line class="c" x1="91" y1="163" x2="138" y2="163"/><line class="c" x1="91" y1="176" x2="131" y2="176"/></svg>
