<svg xmlns="http://www.w3.org/2000/svg" viewBox="0 40 400 260"><defs><style>.a{fill:#fff;}.b{fill:#bf2035;}.c{fill:#008145;}.d,.e{stroke:#fff;}.d,.e,.f{stroke-miterlimit:10;stroke-width:3px;}.e{fill:none;}.f{stroke:#000;}.g{fill:#666;}</style></defs><rect class="a" x="20.5" y="96" width="359" height="199"/><path class="b" d="M61.9,81.64a.92.92,0,0,1-.14,1L51.63,93.76a.91.91,0,0,1-.66.29,1,1,0,0,1-.7-.29L40,82.65a.94.94,0,0,1-.15-1,.88.88,0,0,1,.84-.55h6.49V45a.88.88,0,0,1,.26-.67.9.9,0,0,1,.66-.26h5.56a.9.9,0,0,1,.66.26.88.88,0,0,1,.26.67V81.09h6.48A.83.83,0,0,1,61.9,81.64Z"/><rect class="c" x="20.35" y="162.06" width="60" height="134"/><rect class="c" x="20.35" y="96.06" width="60" height="60"/><line class="d" x1="27.35" y1="106.06" x2="71.35" y2="106.06"/><line class="e" x1="27.35" y1="173.06" x2="74.35" y2="173.06"/><line class="d" x1="27.35" y1="186.06" x2="57.35" y2="186.06"/><line class="e" x1="27.35" y1="199.06" x2="71.35" y2="199.06"/><line class="e" x1="27.35" y1="212.06" x2="64.35" y2="212.06"/><rect class="a" x="26.35" y="118.06" width="47" height="32"/><line class="f" x1="30.35" y1="126.06" x2="55.35" y2="126.06"/><line class="f" x1="30.35" y1="141.06" x2="68.35" y2="141.06"/><path class="g" d="M378.5,97.5v197H21.5V97.5h357M380,96H20V296H380V96Z"/></svg>
