<svg id="ebVfAEj2yFc1" xmlns="http://www.w3.org/2000/svg" xmlns:xlink="http://www.w3.org/1999/xlink" viewBox="0 0 400 300" shape-rendering="geometricPrecision" text-rendering="geometricPrecision"><style><![CDATA[#ebVfAEj2yFc37_to {animation: ebVfAEj2yFc37_to__to 3000ms linear 1 normal forwards}@keyframes ebVfAEj2yFc37_to__to { 0% {transform: translate(345px,209px)} 40% {transform: translate(345px,209px)} 83.333333% {transform: translate(277px,185.5px)} 100% {transform: translate(277px,185.5px)}} #ebVfAEj2yFc37 {animation: ebVfAEj2yFc37_c_o 3000ms linear 1 normal forwards}@keyframes ebVfAEj2yFc37_c_o { 0% {opacity: 0} 20% {opacity: 0} 23.333333% {opacity: 1} 100% {opacity: 1}} #ebVfAEj2yFc38_to {animation: ebVfAEj2yFc38_to__to 3000ms linear 1 normal forwards}@keyframes ebVfAEj2yFc38_to__to { 0% {transform: translate(353.598099px,217.00232px)} 40% {transform: translate(353.598099px,217.00232px)} 83.333333% {transform: translate(285.598099px,193.50232px)} 100% {transform: translate(285.598099px,193.50232px)}} #ebVfAEj2yFc38 {animation: ebVfAEj2yFc38_c_o 3000ms linear 1 normal forwards}@keyframes ebVfAEj2yFc38_c_o { 0% {opacity: 0} 10% {opacity: 1} 96.666667% {opacity: 1} 100% {opacity: 0}}]]></style><defs><linearGradient id="ebVfAEj2yFc17-fill" x1="1.19" y1="1.19" x2="152.07" y2="152.07" spreadMethod="pad" gradientUnits="userSpaceOnUse"><stop id="ebVfAEj2yFc17-fill-0" offset="0%" stop-color="rgb(73,165,247)"/><stop id="ebVfAEj2yFc17-fill-1" offset="100%" stop-color="rgb(17,138,245)"/></linearGradient><linearGradient id="ebVfAEj2yFc22-fill" x1="276.74" y1="276.62" x2="276.74" y2="264.78" spreadMethod="pad" gradientUnits="userSpaceOnUse"><stop id="ebVfAEj2yFc22-fill-0" offset="0%" stop-color="rgb(0,129,69)"/><stop id="ebVfAEj2yFc22-fill-1" offset="19%" stop-color="rgb(0,146,76)"/><stop id="ebVfAEj2yFc22-fill-2" offset="43%" stop-color="rgb(63,165,84)"/><stop id="ebVfAEj2yFc22-fill-3" offset="65%" stop-color="rgb(102,181,90)"/><stop id="ebVfAEj2yFc22-fill-4" offset="85%" stop-color="rgb(124,192,95)"/><stop id="ebVfAEj2yFc22-fill-5" offset="100%" stop-color="rgb(132,198,97)"/></linearGradient></defs><rect id="ebVfAEj2yFc2" width="359" height="199" rx="0" ry="0" transform="matrix(1 0 0 1 20 96)" fill="rgb(255,255,255)" stroke="none" stroke-width="1"/><rect id="ebVfAEj2yFc3" width="60" height="200" rx="0" ry="0" transform="matrix(1 0 0 1 320 96)" fill="rgb(242,242,242)" stroke="none" stroke-width="1"/><line id="ebVfAEj2yFc4" x1="326" y1="105" x2="370" y2="105" fill="rgb(0,0,0)" stroke="rgb(0,0,0)" stroke-width="1.5" stroke-miterlimit="10"/><line id="ebVfAEj2yFc5" x1="326" y1="118" x2="351" y2="118" fill="rgb(0,0,0)" stroke="rgb(0,0,0)" stroke-width="1.5" stroke-miterlimit="10"/><line id="ebVfAEj2yFc6" x1="326" y1="131" x2="364" y2="131" fill="rgb(0,0,0)" stroke="rgb(0,0,0)" stroke-width="1.5" stroke-miterlimit="10"/><line id="ebVfAEj2yFc7" x1="326" y1="157" x2="373" y2="157" fill="rgb(0,0,0)" stroke="rgb(0,0,0)" stroke-width="1.5" stroke-miterlimit="10"/><line id="ebVfAEj2yFc8" x1="326" y1="170" x2="366" y2="170" fill="rgb(0,0,0)" stroke="rgb(0,0,0)" stroke-width="1.5" stroke-miterlimit="10"/><line id="ebVfAEj2yFc9" x1="326" y1="183" x2="356" y2="183" fill="rgb(0,0,0)" stroke="rgb(0,0,0)" stroke-width="1.5" stroke-miterlimit="10"/><line id="ebVfAEj2yFc10" x1="326" y1="196" x2="370" y2="196" fill="rgb(0,0,0)" stroke="rgb(0,0,0)" stroke-width="1.5" stroke-miterlimit="10"/><line id="ebVfAEj2yFc11" x1="326" y1="209" x2="373" y2="209" fill="rgb(0,0,0)" stroke="rgb(0,0,0)" stroke-width="1.5" stroke-miterlimit="10"/><line id="ebVfAEj2yFc12" x1="326" y1="222" x2="366" y2="222" fill="rgb(0,0,0)" stroke="rgb(0,0,0)" stroke-width="1.5" stroke-miterlimit="10"/><line id="ebVfAEj2yFc13" x1="326" y1="248" x2="373" y2="248" fill="rgb(0,0,0)" stroke="rgb(0,0,0)" stroke-width="1.5" stroke-miterlimit="10"/><line id="ebVfAEj2yFc14" x1="326" y1="261" x2="370" y2="261" fill="rgb(0,0,0)" stroke="rgb(0,0,0)" stroke-width="1.5" stroke-miterlimit="10"/><line id="ebVfAEj2yFc15" x1="326" y1="274" x2="373" y2="274" fill="rgb(0,0,0)" stroke="rgb(0,0,0)" stroke-width="1.5" stroke-miterlimit="10"/><line id="ebVfAEj2yFc16" x1="326" y1="287" x2="366" y2="287" fill="rgb(0,0,0)" stroke="rgb(0,0,0)" stroke-width="1.5" stroke-miterlimit="10"/><rect id="ebVfAEj2yFc17" width="154" height="154" rx="0" ry="0" transform="matrix(1 0 0 1 98 132)" fill="url(#ebVfAEj2yFc17-fill)" stroke="none" stroke-width="1"/><rect id="ebVfAEj2yFc18" width="50" height="154" rx="0" ry="0" transform="matrix(1 0 0 1 252 132)" fill="rgb(255,255,255)" stroke="rgb(128,128,128)" stroke-width="1" stroke-miterlimit="10"/><rect id="ebVfAEj2yFc19" width="38" height="15" rx="2" ry="2" transform="matrix(1 0 0 1 258 136)" fill="rgb(0,41,87)" stroke="none" stroke-width="1"/><rect id="ebVfAEj2yFc20" width="38" height="15" rx="2" ry="2" transform="matrix(1 0 0 1 258 157)" fill="rgb(0,41,87)" stroke="none" stroke-width="1"/><path id="ebVfAEj2yFc21" d="M274.82,263C274.728249,263.00497,274.65497,263.078249,274.65,263.17L274.65,264.67C274.650719,264.740138,274.599423,264.799983,274.53,264.81C274.282653,264.856765,274.03876,264.920244,273.8,265C273.730363,265.020073,273.65548,264.996426,273.61,264.94L272.73,263.69C272.668367,263.641597,272.581633,263.641597,272.52,263.69L270.84,264.69C270.771295,264.735684,270.742447,264.82223,270.77,264.9L271.4,266.29C271.448256,266.340297,271.448256,266.419703,271.4,266.47C271.21,266.65,271.03,266.82,270.86,267.01C270.812148,267.062809,270.737647,267.082414,270.67,267.06L269.28,266.43C269.207359,266.405338,269.12707,266.429425,269.08,266.49L268.08,268.18C268.045774,268.249951,268.066882,268.334385,268.13,268.38L269.38,269.26C269.43237,269.308154,269.455217,269.380503,269.44,269.45C269.362675,269.689475,269.299236,269.933214,269.25,270.18C269.236331,270.247347,269.178645,270.296792,269.11,270.3L267.59,270.45C267.513196,270.459558,267.454245,270.52272,267.45,270.6L267.45,272.6C267.456821,272.67814,267.513457,272.742867,267.59,272.76L269.11,272.9C269.178645,272.903208,269.236331,272.952653,269.25,273.02C269.296765,273.267347,269.360244,273.51124,269.44,273.75C269.455217,273.819497,269.43237,273.891846,269.38,273.94L268.13,274.82C268.071325,274.872815,268.051421,274.95641,268.08,275.03L269.08,276.71C269.122192,276.777109,269.205167,276.80615,269.28,276.78L270.67,276.15C270.72364,276.100446,270.80636,276.100446,270.86,276.15C271.029864,276.339859,271.210141,276.520136,271.4,276.69C271.438695,276.747423,271.438695,276.822577,271.4,276.88L270.77,278.26C270.742447,278.33777,270.771295,278.424316,270.84,278.47L272.52,279.47C272.592959,279.505617,272.68092,279.484674,272.73,279.42L273.61,278.17C273.658154,278.11763,273.730503,278.094783,273.8,278.11C274.039475,278.187325,274.283214,278.250764,274.53,278.3C274.595572,278.316609,274.643615,278.372659,274.65,278.44L274.79,279.96C274.800137,280.040477,274.86889,280.100636,274.95,280.1L276.95,280.1C277.025701,280.09217,277.086974,280.034981,277.1,279.96L277.24,278.44C277.24,278.36,277.31,278.32,277.37,278.3C277.617078,278.25204,277.860893,278.188582,278.1,278.11C278.166526,278.094187,278.236267,278.117434,278.28,278.17L279.17,279.42C279.217803,279.479799,279.29968,279.500269,279.37,279.47L281.06,278.47C281.122254,278.419637,281.14625,278.33565,281.12,278.26L280.49,276.88C280.461242,276.812686,280.481833,276.734439,280.54,276.69C280.726624,276.520051,280.903569,276.339768,281.07,276.15C281.12,276.15,281.2,276.07,281.26,276.15L282.65,276.78C282.72777,276.807553,282.814316,276.778705,282.86,276.71L283.86,275.03C283.912364,274.969793,283.912364,274.880207,283.86,274.82L282.61,273.94C282.553574,273.89452,282.529927,273.819637,282.55,273.75C282.627325,273.510525,282.690764,273.266786,282.74,273.02C282.753669,272.952653,282.811355,272.903208,282.88,272.9L284.38,272.9C284.475486,272.894687,284.550148,272.815633,284.55,272.72L284.55,271.62C284.55,266.920057,280.739943,263.11,276.04,263.11Z" fill="rgb(0,41,87)" stroke="none" stroke-width="1"/><path id="ebVfAEj2yFc22" d="M276.53,264.78C276.45268,264.78,276.39,264.84268,276.39,264.92L276.39,266.25C276.384687,266.345486,276.305633,266.420148,276.21,266.42L275.77,266.42C274.300186,266.463697,272.921416,267.142139,271.99,268.28C271.775064,268.530758,271.590455,268.805993,271.44,269.1C271.280421,269.391106,271.146579,269.695597,271.04,270.01C270.892294,270.503343,270.814865,271.015043,270.81,271.53L270.81,271.53C270.81,272.882604,271.34732,274.179809,272.303755,275.136245C273.260191,276.09268,274.557396,276.63,275.91,276.63L275.91,276.63C277.566854,276.63,278.91,275.286854,278.91,273.63C278.904526,272.455908,277.954092,271.505474,276.78,271.5C276.384827,271.5,276.00584,271.656982,275.726411,271.936411C275.446982,272.21584,275.29,272.594827,275.29,272.99C275.29,273.542285,275.737715,273.99,276.29,273.99C276.604122,273.987555,276.87437,273.767199,276.94,273.46C276.954781,273.396137,277.014796,273.353269,277.08,273.36C277.286549,273.413021,277.451355,273.568469,277.516347,273.771569C277.581339,273.974669,277.537396,274.196917,277.4,274.36C277.114961,274.669223,276.710423,274.840514,276.29,274.83C275.796697,274.83,275.323599,274.634036,274.974781,274.285219C274.625964,273.936401,274.43,273.463303,274.43,272.97C274.435506,271.676038,275.486026,270.629988,276.78,270.63C277.516103,270.626162,278.227925,270.893096,278.78,271.38C278.853951,271.446551,278.95054,271.482325,279.05,271.48L282.55,271.48C282.634438,271.474712,282.700165,271.404603,282.7,271.32C282.61028,267.88628,279.952685,265.069316,276.53,264.78Z" fill="url(#ebVfAEj2yFc22-fill)" stroke="none" stroke-width="1"/><path id="ebVfAEj2yFc23" d="M280.15,270.68C279.636375,270.68,279.22,270.263625,279.22,269.75C279.22,269.236375,279.636375,268.82,280.15,268.82C280.663625,268.82,281.08,269.236375,281.08,269.75C281.08,269.996651,280.982018,270.2332,280.807609,270.407609C280.6332,270.582018,280.396651,270.68,280.15,270.68Z" fill="rgb(0,41,87)" stroke="none" stroke-width="1"/><path id="ebVfAEj2yFc24" d="M359.48,80.64C359.628817,80.974127,359.5703,81.36424,359.33,81.64L349.2,92.76C349.029303,92.943403,348.790542,93.048313,348.54,93.05C348.27766,93.048895,348.026261,92.944744,347.84,92.76L337.57,81.65C337.328233,81.374346,337.273228,80.98145,337.43,80.65C337.562811,80.305282,337.900934,80.083892,338.27,80.1L344.75,80.1L344.75,44C344.742243,43.750653,344.836079,43.508845,345.01,43.33C345.185127,43.156632,345.423683,43.062655,345.67,43.07L351.23,43.07C351.478956,43.0645,351.719921,43.158009,351.9,43.33C352.073921,43.508845,352.167757,43.750653,352.16,44L352.16,80.09L358.64,80.09C359.010816,80.06741,359.35243,80.291086,359.48,80.64Z" fill="rgb(191,32,53)" stroke="none" stroke-width="1"/><rect id="ebVfAEj2yFc25" width="60" height="134" rx="0" ry="0" transform="matrix(1 0 0 1 19.82 162.06)" fill="rgb(0,129,69)" stroke="none" stroke-width="1"/><rect id="ebVfAEj2yFc26" width="60" height="60" rx="0" ry="0" transform="matrix(1 0 0 1 19.82 96.06)" fill="rgb(0,129,69)" stroke="none" stroke-width="1"/><line id="ebVfAEj2yFc27" x1="26.82" y1="106.06" x2="70.82" y2="106.06" fill="rgb(0,0,0)" stroke="rgb(255,255,255)" stroke-width="3" stroke-miterlimit="10"/><line id="ebVfAEj2yFc28" x1="26.82" y1="173.06" x2="73.82" y2="173.06" fill="none" stroke="rgb(255,255,255)" stroke-width="3" stroke-miterlimit="10"/><line id="ebVfAEj2yFc29" x1="26.82" y1="186.06" x2="56.82" y2="186.06" fill="rgb(0,0,0)" stroke="rgb(255,255,255)" stroke-width="3" stroke-miterlimit="10"/><line id="ebVfAEj2yFc30" x1="26.82" y1="199.06" x2="70.82" y2="199.06" fill="none" stroke="rgb(255,255,255)" stroke-width="3" stroke-miterlimit="10"/><line id="ebVfAEj2yFc31" x1="26.82" y1="212.06" x2="63.82" y2="212.06" fill="none" stroke="rgb(255,255,255)" stroke-width="3" stroke-miterlimit="10"/><rect id="ebVfAEj2yFc32" width="47" height="32" rx="0" ry="0" transform="matrix(1 0 0 1 25.82 118.06)" fill="rgb(255,255,255)" stroke="none" stroke-width="1"/><line id="ebVfAEj2yFc33" x1="29.82" y1="126.06" x2="54.82" y2="126.06" fill="rgb(0,0,0)" stroke="rgb(0,0,0)" stroke-width="3" stroke-miterlimit="10"/><rect id="ebVfAEj2yFc34" width="47" height="17" rx="0" ry="0" transform="matrix(1 0 0 1 25.82 133.06)" fill="rgb(0,41,87)" stroke="none" stroke-width="1"/><line id="ebVfAEj2yFc35" x1="29.82" y1="141.06" x2="67.82" y2="141.06" fill="rgb(0,0,0)" stroke="rgb(255,255,255)" stroke-width="3" stroke-miterlimit="10"/><path id="ebVfAEj2yFc36" d="M378.5,97.5L378.5,294.5L21.5,294.5L21.5,97.5L378.5,97.5M380,96L20,96L20,296L380,296L380,96Z" fill="rgb(102,102,102)" stroke="none" stroke-width="1"/><g id="ebVfAEj2yFc37_to" transform="translate(345,209)"><rect id="ebVfAEj2yFc37" width="38" height="15" rx="2" ry="2" transform="translate(-19,-7.5)" opacity="0" fill="rgb(0,41,87)" stroke="none" stroke-width="1"/></g><g id="ebVfAEj2yFc38_to" transform="translate(353.598099,217.00232)"><path id="ebVfAEj2yFc38" d="M289.62,196.53C289.793633,196.682634,289.84288,196.932971,289.74,197.14C289.661296,197.363165,289.446462,197.50909,289.21,197.5L285.8,197.5L287.6,201.75C287.660032,201.890524,287.660032,202.049476,287.6,202.19C287.540319,202.329314,287.429314,202.440319,287.29,202.5L285.71,203.17C285.572847,203.229529,285.417153,203.229529,285.28,203.17C285.138743,203.11484,285.024149,203.007408,284.96,202.87L283.26,198.87L280.47,201.66C280.366363,201.770191,280.221259,201.831861,280.07,201.83C279.757979,201.814541,279.510031,201.562243,279.5,201.25L279.5,187.79C279.510031,187.477757,279.757979,187.225459,280.07,187.21C280.221505,187.206877,280.367101,187.268755,280.47,187.38Z" transform="translate(-284.646622,-195.21225)" opacity="0" fill="rgb(0,0,0)" stroke="rgb(247,147,30)" stroke-width="1" stroke-miterlimit="10"/></g></svg>