<svg xmlns="http://www.w3.org/2000/svg" xmlns:xlink="http://www.w3.org/1999/xlink" viewBox="0 40 400 260"><defs><style>.a{fill:#fff;}.b{fill:url(#a);}.c{stroke:#000;stroke-miterlimit:10;stroke-width:1.5px;}.d{fill:#666;}.e{fill:#bf2035;}</style><linearGradient id="a" x1="50" y1="96.91" x2="50" y2="295.94" gradientUnits="userSpaceOnUse"><stop offset="0" stop-color="#a3d488"/><stop offset="1" stop-color="#40a073"/></linearGradient></defs><rect class="a" x="20.5" y="96" width="359" height="199"/><rect class="b" x="20" y="96" width="60" height="200"/><line class="c" x1="27" y1="105" x2="71" y2="105"/><line class="c" x1="27" y1="118" x2="52" y2="118"/><line class="c" x1="27" y1="131" x2="65" y2="131"/><line class="c" x1="27" y1="170" x2="74" y2="170"/><line class="c" x1="27" y1="183" x2="57" y2="183"/><line class="c" x1="27" y1="196" x2="71" y2="196"/><line class="c" x1="27" y1="209" x2="64" y2="209"/><path class="d" d="M378.5,97.5v197H21.5V97.5h357M380,96H20V296H380V96Z"/><path class="e" d="M61.9,81.64a.92.92,0,0,1-.14,1L51.63,93.76a.91.91,0,0,1-.66.29,1,1,0,0,1-.7-.29L40,82.65a.94.94,0,0,1-.15-1,.88.88,0,0,1,.84-.55h6.49V45a.88.88,0,0,1,.26-.67.9.9,0,0,1,.66-.26h5.56a.9.9,0,0,1,.66.26.88.88,0,0,1,.26.67V81.09h6.48A.83.83,0,0,1,61.9,81.64Z"/></svg>
